<svg width="578" height="399" viewBox="0 0 578 399" fill="none" xmlns="http://www.w3.org/2000/svg">
<rect width="578" height="399" fill="#13C1AC"/>
<path d="M197.488 172C190.939 172 186.216 175.385 183.525 179.002C183.379 179.2 183.102 179.249 182.893 179.119C181.51 178.265 179.171 177.121 175.922 177.121C169.001 177.121 163 182.774 163 189.748C163 195.069 166.036 198.607 167.757 199.961C167.943 200.107 167.992 200.365 167.867 200.562C166.734 202.368 165.603 205.574 165.603 207.954C165.603 215.287 171.634 221.232 179.14 221.232C181.453 221.232 183.196 220.811 183.916 220.603C184.125 220.543 184.348 220.628 184.459 220.811C185.749 222.952 189.691 227 196.275 227C203.02 227 209.638 221.837 210.237 214.787C210.254 214.582 210.412 214.413 210.618 214.374C216.683 213.261 221 207.74 221 201.688C221 195.662 217.287 192.192 215.088 190.77C214.945 190.678 214.868 190.518 214.883 190.35C215.561 182.317 209.247 172 197.488 172ZM171.507 207.15C171.507 205.681 171.839 204.186 172.629 202.818C172.676 202.736 172.856 202.476 173.154 202.545C174.335 202.868 175.506 203.032 176.917 203.032C178.352 203.032 179.419 201.919 179.419 200.551C179.419 199.287 178.437 198.093 176.756 198.093C173.545 198.093 169.324 195.365 169.324 190.33C169.324 186.003 172.864 182.652 177.046 182.652C178.668 182.652 180.05 182.957 181.785 184.01C182.408 184.387 183.059 185.048 184.31 185.048C185.341 185.048 186.01 184.444 186.313 183.853C187.105 182.306 190.279 178.035 197.23 178.035C203.352 178.035 208.924 183.657 208.924 189.729C208.924 193.192 207.731 195.135 206.389 197.086C205.925 197.759 205.853 198.261 205.853 198.755C205.853 200.313 207.137 201.38 208.54 201.38C210.669 201.38 212.077 198.832 213.003 197.204C213.116 197.005 213.402 196.988 213.538 197.173C214.117 197.96 215.013 199.793 215.013 202.208C215.013 205.625 212.204 209.569 207.153 210.006C205.539 210.146 204.647 210.991 204.58 212.584C204.395 217.043 200.737 220.414 196.18 220.414C190.529 220.414 187.427 214.979 188.017 210.514C188.257 208.698 186.782 207.73 185.481 207.73C184.303 207.73 183.46 208.286 182.978 209.199C182.2 210.676 182.159 213.666 182.308 214.846C182.362 215.27 182.151 215.504 180.457 215.504C175.956 215.498 171.507 212.213 171.507 207.15Z" fill="white"/>
<path d="M394.6 211.584C394.637 212.813 395.567 213.739 396.763 213.739C397.958 213.739 398.888 212.809 398.927 211.584L399.174 203.483C399.179 203.313 399.224 203.146 399.307 202.997C399.39 202.849 399.508 202.722 399.65 202.628C399.792 202.534 399.954 202.476 400.124 202.458C400.293 202.44 400.464 202.463 400.623 202.525C401.82 203.001 403.125 203.263 404.492 203.265C410.098 203.271 414.757 198.818 414.969 193.24C415.193 187.298 410.421 182.41 404.501 182.41C398.718 182.41 394.029 187.078 394.029 192.837C394.029 194.566 394.6 211.584 394.6 211.584V211.584ZM404.501 198.29C401.479 198.29 399.027 195.847 399.027 192.836C399.027 189.826 401.479 187.385 404.501 187.385C407.525 187.385 409.976 189.826 409.976 192.837C409.976 195.847 407.527 198.29 404.501 198.29V198.29ZM276.405 184.561C276.337 183.206 275.339 182.439 274.26 182.439C273.174 182.439 272.206 183.206 272.127 184.561L271.583 193.859C271.411 196.788 269.725 198.291 267.576 198.291C265.493 198.291 263.835 196.918 263.608 194.454L262.93 187.244C262.809 185.954 261.883 185.301 260.978 185.301L260.93 185.303L260.884 185.301C259.978 185.301 259.053 185.955 258.932 187.244L258.254 194.454C258.027 196.918 256.369 198.291 254.286 198.291C252.136 198.291 250.45 196.789 250.279 193.859L249.735 184.561C249.656 183.206 248.687 182.439 247.6 182.439C246.522 182.439 245.524 183.206 245.456 184.561L245.012 193.627C244.726 199.432 249.717 203.266 254.286 203.266C256.463 203.27 258.572 202.509 260.245 201.116C260.438 200.955 260.68 200.868 260.93 200.868C261.181 200.868 261.423 200.955 261.616 201.116C263.289 202.509 265.398 203.27 267.576 203.266C272.145 203.266 277.137 199.432 276.85 193.627L276.405 184.561V184.561ZM382.205 182.41C376.421 182.41 371.733 187.078 371.733 192.837C371.733 198.596 376.421 203.265 382.205 203.265C387.991 203.265 392.679 198.596 392.679 192.837C392.679 187.078 387.989 182.41 382.205 182.41V182.41ZM382.205 198.29C379.181 198.29 376.729 195.847 376.729 192.836C376.729 189.826 379.181 187.385 382.205 187.385C385.23 187.385 387.681 189.826 387.681 192.837C387.681 195.847 385.23 198.29 382.205 198.29V198.29ZM360.025 182.41C354.24 182.41 349.552 187.078 349.552 192.837C349.552 193.263 349.586 194.62 349.639 196.422C349.6 197.501 348.793 198.289 347.758 198.289C346.717 198.289 346.009 197.543 345.883 196.58L345.22 191.526L345.214 191.48L345.21 191.44C344.524 186.341 340.138 182.41 334.831 182.41C329.092 182.41 324.433 187.005 324.359 192.701V192.697C324.359 192.697 324.308 194.26 324.509 196.172C324.625 197.268 323.439 198.291 322.399 198.291C321.191 198.291 320.308 197.352 320.245 195.283L319.597 174.03V173.997C319.568 173.027 318.662 172 317.435 172C316.19 172 315.309 173.026 315.279 174.03L314.632 195.283C314.571 197.272 313.282 198.291 311.823 198.291C310.348 198.291 309.09 197.272 309.029 195.283L308.382 174.03C308.35 172.971 307.397 172 306.224 172C305.157 172 304.1 172.829 304.063 174.03L303.38 196.409C303.347 197.496 302.538 198.291 301.498 198.291C300.457 198.291 299.749 197.545 299.624 196.582L298.949 191.442C298.267 186.37 293.925 182.453 288.654 182.412C282.859 182.366 278.096 187.07 278.096 192.839C278.096 198.597 282.784 203.267 288.569 203.267C291.004 203.267 293.246 202.438 295.025 201.049C295.294 200.841 295.587 200.792 295.786 200.792C297.352 200.792 297.546 203.265 301.498 203.265C303.087 203.265 304.747 202.195 305.611 201.543C305.779 201.416 305.985 201.349 306.196 201.352C306.406 201.355 306.61 201.429 306.773 201.562C307.588 202.215 309.288 203.266 311.8 203.266C313.988 203.266 315.43 202.354 316.183 201.7C316.357 201.549 316.58 201.465 316.811 201.465C317.042 201.465 317.265 201.549 317.439 201.7C318.618 202.722 320.129 203.278 321.689 203.266C325.158 203.266 326.575 200.793 327.607 200.793C327.932 200.793 328.147 200.881 328.397 201.065C330.236 202.495 332.501 203.27 334.832 203.266C337.267 203.266 339.508 202.438 341.287 201.05C341.556 200.841 341.85 200.792 342.048 200.792C343.615 200.792 343.983 203.265 347.169 203.265C348.149 203.265 348.849 202.894 349.652 202.434C349.729 202.389 349.828 202.444 349.83 202.532C349.977 207.12 350.126 211.584 350.126 211.584C350.163 212.813 351.094 213.739 352.289 213.739C353.483 213.739 354.414 212.809 354.453 211.584L354.7 203.483C354.722 202.743 355.476 202.259 356.166 202.532C357.358 203.004 358.657 203.264 360.018 203.265C365.624 203.271 370.284 198.818 370.494 193.24C370.714 187.298 365.943 182.41 360.025 182.41V182.41ZM288.568 198.29C285.544 198.29 283.092 195.847 283.092 192.836C283.092 189.826 285.545 187.385 288.568 187.385C291.591 187.385 294.043 189.826 294.043 192.837C294.043 195.847 291.591 198.29 288.568 198.29V198.29ZM334.829 198.29C331.806 198.29 329.353 195.847 329.353 192.836C329.353 189.826 331.806 187.385 334.829 187.385C337.853 187.385 340.305 189.826 340.305 192.837C340.305 195.847 337.853 198.29 334.829 198.29V198.29ZM360.025 198.29C357.001 198.29 354.549 195.847 354.549 192.836C354.549 189.826 357.001 187.385 360.025 187.385C363.049 187.385 365.501 189.826 365.501 192.837C365.501 195.847 363.049 198.29 360.025 198.29V198.29Z" fill="white"/>
</svg>
